<svg xmlns="http://www.w3.org/2000/svg" xmlns:xlink="http://www.w3.org/1999/xlink" width="1000" zoomAndPan="magnify" viewBox="0 0 750 419.999985" height="560" preserveAspectRatio="xMidYMid meet" version="1.0"><defs><g/><clipPath id="4132169e3d"><rect x="0" width="750" y="0" height="408"/></clipPath><clipPath id="4af435e835"><rect x="0" width="164" y="0" height="76"/></clipPath></defs><g transform="matrix(1, 0, 0, 1, -0, 12)"><g clip-path="url(#4132169e3d)"><g fill="#ffffff" fill-opacity="1"><g transform="translate(-18.594876, 315.906812)"><g><path d="M 29.703125 -276.75 L 29.703125 0 L 27.671875 0 L 27.671875 -276.75 Z M 40.78125 -276.75 L 40.78125 0 L 38.75 0 L 38.75 -276.75 Z M 51.84375 -276.75 L 51.84375 0 L 49.8125 0 L 49.8125 -276.75 Z M 81.921875 -276.75 C 115.128906 -276.75 144.648438 -266.359375 170.484375 -245.578125 C 179.460938 -237.941406 186.472656 -230.867188 191.515625 -224.359375 C 198.035156 -215.867188 202.707031 -208.609375 205.53125 -202.578125 C 216.113281 -182.285156 221.40625 -161.253906 221.40625 -139.484375 L 221.40625 -137.265625 C 221.40625 -112.671875 214.757812 -89.054688 201.46875 -66.421875 C 185.476562 -40.710938 163.769531 -22.078125 136.34375 -10.515625 C 119.125 -3.503906 101.84375 0 84.5 0 L 60.890625 0 L 60.890625 -276.75 Z M 62.921875 -241.515625 L 62.921875 -35.0625 L 81.1875 -35.0625 C 102.707031 -35.0625 121.832031 -40.472656 138.5625 -51.296875 C 138.8125 -51.296875 141.640625 -53.320312 147.046875 -57.375 C 149.753906 -59.46875 153.257812 -62.664062 157.5625 -66.96875 C 162.851562 -72.632812 166.484375 -77.125 168.453125 -80.4375 C 180.378906 -98.28125 186.34375 -117.59375 186.34375 -138.375 C 186.34375 -157.5625 181.175781 -175.644531 170.84375 -192.625 C 158.425781 -212.550781 140.898438 -226.816406 118.265625 -235.421875 C 106.578125 -239.484375 95.195312 -241.515625 84.125 -241.515625 Z M 62.921875 -241.515625 "/></g></g></g><g fill="#ffffff" fill-opacity="1"><g transform="translate(226.467664, 315.906812)"><g><path d="M 154.609375 -279.328125 C 181.179688 -279.328125 205.96875 -272.316406 228.96875 -258.296875 C 248.519531 -246.003906 264.140625 -230.078125 275.828125 -210.515625 C 279.273438 -204.734375 282.410156 -198.398438 285.234375 -191.515625 C 292.128906 -174.171875 295.578125 -156.890625 295.578125 -139.671875 L 295.578125 -137.265625 C 295.578125 -119.921875 292.128906 -102.578125 285.234375 -85.234375 C 274.535156 -59.648438 257.992188 -38.925781 235.609375 -23.0625 C 229.828125 -19.125 224.171875 -15.742188 218.640625 -12.921875 C 213.710938 -10.335938 208.175781 -7.9375 202.03125 -5.71875 C 186.53125 -0.300781 171.21875 2.40625 156.09375 2.40625 L 153.140625 2.40625 C 137.640625 2.40625 121.832031 -0.484375 105.71875 -6.265625 C 78.90625 -16.484375 57.070312 -33.148438 40.21875 -56.265625 C 35.914062 -62.546875 32.65625 -67.835938 30.4375 -72.140625 C 19.375 -93.046875 13.84375 -115.1875 13.84375 -138.5625 C 13.84375 -163.039062 19.929688 -186.226562 32.109375 -208.125 C 35.304688 -213.78125 39.488281 -219.925781 44.65625 -226.5625 C 46.988281 -229.394531 50.125 -232.84375 54.0625 -236.90625 C 59.71875 -242.5625 63.835938 -246.3125 66.421875 -248.15625 C 72.078125 -252.707031 77.734375 -256.703125 83.390625 -260.140625 C 105.773438 -272.929688 129.515625 -279.328125 154.609375 -279.328125 Z M 49.625 -138.375 C 49.625 -118.570312 54.976562 -100 65.6875 -82.65625 C 77.125 -64.695312 92.5625 -51.289062 112 -42.4375 C 125.894531 -36.40625 139.726562 -33.390625 153.5 -33.390625 L 155.90625 -33.390625 C 168.695312 -33.390625 181.734375 -36.035156 195.015625 -41.328125 C 199.929688 -43.421875 205.28125 -46.25 211.0625 -49.8125 C 214.507812 -52.03125 218.382812 -54.921875 222.6875 -58.484375 C 224.90625 -60.328125 227.675781 -62.910156 231 -66.234375 C 235.789062 -71.398438 239.359375 -75.828125 241.703125 -79.515625 C 246.984375 -87.390625 251.222656 -96 254.421875 -105.34375 C 257.992188 -116.175781 259.78125 -126.878906 259.78125 -137.453125 L 259.78125 -139.484375 C 259.78125 -155.222656 255.90625 -170.90625 248.15625 -186.53125 C 245.9375 -190.707031 243.660156 -194.457031 241.328125 -197.78125 C 239.484375 -200.488281 237.207031 -203.503906 234.5 -206.828125 C 229.582031 -212.359375 225.460938 -216.414062 222.140625 -219 C 216.722656 -223.425781 211.617188 -226.992188 206.828125 -229.703125 C 190.460938 -238.929688 173.179688 -243.546875 154.984375 -243.546875 L 154.25 -243.546875 C 135.425781 -243.546875 117.585938 -238.5625 100.734375 -228.59375 C 81.179688 -216.539062 66.914062 -200.117188 57.9375 -179.328125 C 52.394531 -166.171875 49.625 -152.519531 49.625 -138.375 Z M 18.453125 -166.046875 C 16.722656 -157.191406 15.859375 -147.96875 15.859375 -138.375 C 15.859375 -116.851562 20.71875 -96.25 30.4375 -76.5625 C 32.894531 -71.519531 35.972656 -66.296875 39.671875 -60.890625 C 42.253906 -56.828125 46.375 -51.535156 52.03125 -45.015625 C 56.582031 -40.222656 59.71875 -37.085938 61.4375 -35.609375 C 67.707031 -30.078125 72.691406 -26.140625 76.390625 -23.796875 C 86.835938 -16.546875 98.394531 -10.828125 111.0625 -6.640625 C 125.332031 -1.960938 139.847656 0.375 154.609375 0.375 C 179.335938 0.375 202.644531 -5.898438 224.53125 -18.453125 C 229.457031 -21.273438 234.992188 -25.023438 241.140625 -29.703125 C 243.847656 -31.796875 247.910156 -35.425781 253.328125 -40.59375 C 259.222656 -46.863281 263.460938 -51.84375 266.046875 -55.53125 C 270.109375 -61.070312 273.125 -65.6875 275.09375 -69.375 C 279.03125 -76.007812 282.535156 -83.507812 285.609375 -91.875 C 290.898438 -107.132812 293.546875 -122.695312 293.546875 -138.5625 C 293.546875 -147.539062 292.625 -156.703125 290.78125 -166.046875 L 281.359375 -166.046875 C 283.328125 -157.066406 284.3125 -147.84375 284.3125 -138.375 C 284.3125 -112.425781 276.992188 -88.316406 262.359375 -66.046875 C 259.773438 -62.484375 256.945312 -58.796875 253.875 -54.984375 C 251.90625 -52.523438 249.078125 -49.445312 245.390625 -45.75 C 239.734375 -40.46875 235.117188 -36.535156 231.546875 -33.953125 C 225.765625 -29.765625 220.171875 -26.316406 214.765625 -23.609375 C 195.941406 -13.773438 175.890625 -8.859375 154.609375 -8.859375 C 130.503906 -8.859375 107.9375 -15.253906 86.90625 -28.046875 C 64.757812 -41.816406 48.148438 -60.390625 37.078125 -83.765625 C 34.742188 -88.804688 32.472656 -94.957031 30.265625 -102.21875 C 26.816406 -114.269531 25.09375 -125.890625 25.09375 -137.078125 L 25.09375 -139.859375 C 25.09375 -148.335938 26.078125 -157.066406 28.046875 -166.046875 Z M 27.125 -138.5625 C 27.125 -115.3125 33.148438 -93.414062 45.203125 -72.875 C 57.867188 -52.207031 74.71875 -36.34375 95.75 -25.28125 C 99.320312 -23.4375 103.445312 -21.53125 108.125 -19.5625 C 123.25 -13.78125 138.5625 -10.890625 154.0625 -10.890625 L 155.34375 -10.890625 C 175.269531 -10.890625 194.582031 -15.625 213.28125 -25.09375 C 218.820312 -27.914062 224.601562 -31.546875 230.625 -35.984375 C 234.070312 -38.441406 237.820312 -41.578125 241.875 -45.390625 C 246.3125 -49.566406 249.570312 -52.945312 251.65625 -55.53125 C 255.226562 -59.84375 258.117188 -63.597656 260.328125 -66.796875 C 266.847656 -76.390625 272.078125 -87.085938 276.015625 -98.890625 C 280.191406 -111.804688 282.28125 -124.90625 282.28125 -138.1875 L 282.28125 -138.9375 C 282.28125 -148.03125 281.238281 -157.066406 279.15625 -166.046875 L 269.734375 -166.046875 C 271.953125 -157.066406 273.0625 -147.84375 273.0625 -138.375 C 273.0625 -115.863281 266.972656 -94.769531 254.796875 -75.09375 C 252.460938 -71.40625 249.390625 -67.285156 245.578125 -62.734375 C 243.609375 -60.148438 240.53125 -56.828125 236.34375 -52.765625 C 231.550781 -48.335938 227.800781 -45.203125 225.09375 -43.359375 C 220.664062 -40.035156 216.238281 -37.207031 211.8125 -34.875 C 193.851562 -25.03125 174.847656 -20.109375 154.796875 -20.109375 C 133.640625 -20.109375 113.648438 -25.519531 94.828125 -36.34375 C 90.160156 -39.050781 84.992188 -42.679688 79.328125 -47.234375 C 77.117188 -48.953125 73.921875 -51.90625 69.734375 -56.09375 L 64.578125 -61.8125 C 59.035156 -68.570312 55.160156 -73.984375 52.953125 -78.046875 C 49.753906 -83.210938 46.679688 -89.609375 43.734375 -97.234375 C 38.804688 -110.640625 36.34375 -124.351562 36.34375 -138.375 L 36.34375 -138.75 C 36.34375 -147.96875 37.390625 -157.066406 39.484375 -166.046875 L 30.078125 -166.046875 L 29.328125 -162.734375 C 27.859375 -154.609375 27.125 -146.550781 27.125 -138.5625 Z M 41.515625 -166.046875 C 39.421875 -156.941406 38.375 -147.960938 38.375 -139.109375 L 38.375 -137.828125 C 38.375 -121.953125 41.757812 -106.328125 48.53125 -90.953125 C 51.113281 -85.054688 54.675781 -78.785156 59.21875 -72.140625 C 61.5625 -68.578125 65.066406 -64.210938 69.734375 -59.046875 C 74.046875 -54.617188 76.816406 -51.972656 78.046875 -51.109375 C 83.210938 -46.679688 87.394531 -43.421875 90.59375 -41.328125 C 95.882812 -37.878906 101.296875 -34.925781 106.828125 -32.46875 C 122.203125 -25.582031 138.191406 -22.140625 154.796875 -22.140625 C 174.972656 -22.140625 194.097656 -27.179688 212.171875 -37.265625 C 216.972656 -39.972656 222.265625 -43.601562 228.046875 -48.15625 C 234.316406 -53.320312 240.160156 -59.222656 245.578125 -65.859375 C 249.878906 -71.273438 253.628906 -76.875 256.828125 -82.65625 C 266.296875 -100.25 271.03125 -118.882812 271.03125 -138.5625 C 271.03125 -147.90625 269.925781 -157.066406 267.71875 -166.046875 L 258.125 -166.046875 C 260.582031 -157.066406 261.8125 -148.03125 261.8125 -138.9375 L 261.8125 -137.828125 C 261.8125 -118.515625 256.582031 -100.125 246.125 -82.65625 C 234.925781 -64.570312 219.613281 -50.859375 200.1875 -41.515625 C 185.550781 -34.742188 170.664062 -31.359375 155.53125 -31.359375 L 154.0625 -31.359375 C 136.34375 -31.359375 119.304688 -35.789062 102.953125 -44.65625 C 99.265625 -46.738281 95.082031 -49.441406 90.40625 -52.765625 C 87.457031 -54.984375 83.765625 -58.179688 79.328125 -62.359375 C 74.285156 -67.523438 70.84375 -71.523438 69 -74.359375 C 65.0625 -79.640625 61.800781 -84.804688 59.21875 -89.859375 C 51.46875 -105.234375 47.59375 -121.46875 47.59375 -138.5625 C 47.59375 -147.90625 48.765625 -157.066406 51.109375 -166.046875 Z M 41.515625 -166.046875 "/></g></g></g><g fill="#ffffff" fill-opacity="1"><g transform="translate(545.699328, 315.906812)"><g><path d="M 63.09375 -276.75 L 63.09375 -81.1875 C 63.09375 -69.5 67.21875 -58.859375 75.46875 -49.265625 C 85.550781 -38.554688 97.601562 -33.203125 111.625 -33.203125 C 123.425781 -33.203125 134.1875 -37.445312 143.90625 -45.9375 C 148.09375 -50.125 150.492188 -52.953125 151.109375 -54.421875 C 153.816406 -57.992188 156.09375 -62.734375 157.9375 -68.640625 C 159.039062 -73.304688 159.59375 -77.546875 159.59375 -81.359375 L 159.59375 -276.75 L 195.203125 -276.75 L 195.015625 -81.921875 L 195.015625 -78.78125 C 195.015625 -71.769531 193.539062 -63.59375 190.59375 -54.25 C 188.375 -48.34375 185.972656 -43.113281 183.390625 -38.5625 C 173.179688 -21.957031 159.097656 -10.210938 141.140625 -3.328125 C 131.546875 0.367188 121.582031 2.21875 111.25 2.21875 C 90.707031 2.21875 72.195312 -4.851562 55.71875 -19 C 37.019531 -36.101562 27.671875 -57.503906 27.671875 -83.203125 L 27.671875 -276.75 Z M 29.703125 -165.125 L 29.703125 -80.265625 C 29.703125 -65.742188 33.945312 -51.597656 42.4375 -37.828125 C 44.769531 -33.890625 48.457031 -29.210938 53.5 -23.796875 C 59.039062 -18.628906 63.101562 -15.367188 65.6875 -14.015625 C 69.988281 -10.941406 74.847656 -8.300781 80.265625 -6.09375 C 90.347656 -1.90625 100.429688 0.1875 110.515625 0.1875 L 112.359375 0.1875 C 128.347656 0.1875 143.660156 -4.796875 158.296875 -14.765625 C 161.378906 -16.734375 165.253906 -19.988281 169.921875 -24.53125 C 173.984375 -28.96875 176.9375 -32.597656 178.78125 -35.421875 C 188.25 -49.566406 192.984375 -64.878906 192.984375 -81.359375 L 192.984375 -165.125 L 183.953125 -165.125 L 183.953125 -80.625 C 183.953125 -65.5 179.09375 -51.289062 169.375 -38 C 167.769531 -35.664062 165.25 -32.773438 161.8125 -29.328125 C 156.644531 -24.660156 152.890625 -21.710938 150.546875 -20.484375 C 138.492188 -12.734375 125.394531 -8.859375 111.25 -8.859375 C 94.644531 -8.859375 79.457031 -14.269531 65.6875 -25.09375 C 60.269531 -29.769531 56.457031 -33.644531 54.25 -36.71875 C 50.3125 -42.007812 47.539062 -46.5 45.9375 -50.1875 C 44.09375 -54 42.429688 -58.488281 40.953125 -63.65625 C 39.484375 -69.4375 38.75 -76.140625 38.75 -83.765625 L 38.75 -165.125 Z M 40.953125 -165.125 L 40.953125 -80.625 C 40.953125 -66.726562 45.257812 -53.382812 53.875 -40.59375 C 56.09375 -37.632812 58.800781 -34.5 62 -31.1875 C 67.65625 -26.019531 72.019531 -22.632812 75.09375 -21.03125 C 86.40625 -14.382812 98.335938 -11.0625 110.890625 -11.0625 L 112 -11.0625 C 128.226562 -11.0625 143.171875 -16.597656 156.828125 -27.671875 C 161.867188 -32.222656 165.191406 -35.664062 166.796875 -38 C 176.878906 -51.039062 181.921875 -65.679688 181.921875 -81.921875 L 181.921875 -165.125 L 172.6875 -165.125 L 172.6875 -81 C 172.6875 -66.363281 167.582031 -52.957031 157.375 -40.78125 C 153.195312 -36.46875 150.429688 -33.882812 149.078125 -33.03125 C 145.628906 -30.445312 142.492188 -28.414062 139.671875 -26.9375 C 130.566406 -22.382812 121.523438 -20.109375 112.546875 -20.109375 L 109.96875 -20.109375 C 98.769531 -20.109375 87.820312 -23.613281 77.125 -30.625 C 74.164062 -32.46875 70.472656 -35.601562 66.046875 -40.03125 C 59.648438 -47.414062 55.222656 -55.046875 52.765625 -62.921875 C 50.921875 -68.578125 50 -75.894531 50 -84.875 L 50 -165.125 Z M 52.03125 -165.125 L 52.03125 -81 C 52.03125 -67.09375 56.890625 -54.300781 66.609375 -42.625 C 71.035156 -37.945312 74.171875 -35.054688 76.015625 -33.953125 C 86.710938 -26.078125 98.394531 -22.140625 111.0625 -22.140625 L 111.625 -22.140625 C 127.613281 -22.140625 141.757812 -28.164062 154.0625 -40.21875 C 160.082031 -46.863281 164.265625 -53.445312 166.609375 -59.96875 C 169.304688 -66.851562 170.65625 -74.351562 170.65625 -82.46875 L 170.65625 -165.125 L 161.625 -165.125 L 161.625 -81.359375 C 161.625 -67.710938 156.519531 -55.722656 146.3125 -45.390625 C 141.269531 -40.710938 136.164062 -37.328125 131 -35.234375 C 124.726562 -32.648438 118.515625 -31.359375 112.359375 -31.359375 L 110.515625 -31.359375 C 100.796875 -31.359375 91.507812 -34.3125 82.65625 -40.21875 C 80.8125 -41.320312 78.101562 -43.660156 74.53125 -47.234375 C 69.863281 -52.523438 66.421875 -58.242188 64.203125 -64.390625 C 62.234375 -69.921875 61.25 -75.269531 61.25 -80.4375 L 61.25 -165.125 Z M 52.03125 -165.125 "/></g></g></g></g></g><g transform="matrix(1, 0, 0, 1, 305, 152)"><g clip-path="url(#4af435e835)"><g fill="#800000" fill-opacity="1"><g transform="translate(0.69362, 56.161547)"><g><path d="M 15.921875 -49.484375 L 16.28125 -49.484375 C 18.28125 -49.484375 20.257812 -48.984375 22.21875 -47.984375 C 22.75 -47.703125 23.335938 -47.332031 23.984375 -46.875 C 26.054688 -45.28125 27.539062 -43.296875 28.4375 -40.921875 C 28.414062 -40.898438 28.304688 -40.859375 28.109375 -40.796875 C 27.066406 -43.492188 25.320312 -45.613281 22.875 -47.15625 C 20.78125 -48.46875 18.515625 -49.125 16.078125 -49.125 C 13.484375 -49.125 11.066406 -48.363281 8.828125 -46.84375 C 8.390625 -46.550781 7.898438 -46.15625 7.359375 -45.65625 C 6.765625 -45.09375 6.335938 -44.632812 6.078125 -44.28125 C 4.222656 -41.882812 3.296875 -39.238281 3.296875 -36.34375 C 3.296875 -33.601562 4.132812 -31.066406 5.8125 -28.734375 C 6.101562 -28.335938 6.539062 -27.832031 7.125 -27.21875 C 7.863281 -26.53125 8.429688 -26.066406 8.828125 -25.828125 C 10.242188 -24.835938 11.820312 -24.160156 13.5625 -23.796875 C 14.5 -23.617188 15.21875 -23.53125 15.71875 -23.53125 C 16.71875 -23.46875 17.363281 -23.390625 17.65625 -23.296875 C 18.4375 -23.109375 19.054688 -22.90625 19.515625 -22.6875 C 19.992188 -22.445312 20.515625 -22.117188 21.078125 -21.703125 C 21.410156 -21.484375 21.804688 -21.132812 22.265625 -20.65625 C 23.109375 -19.71875 23.71875 -18.71875 24.09375 -17.65625 C 24.457031 -16.625 24.640625 -15.585938 24.640625 -14.546875 L 26.28125 -14.546875 L 26.28125 -14.703125 C 26.28125 -16.472656 25.789062 -18.21875 24.8125 -19.9375 C 23.5625 -22.007812 21.847656 -23.488281 19.671875 -24.375 C 19.148438 -24.59375 18.671875 -24.757812 18.234375 -24.875 C 17.410156 -25.050781 16.75 -25.140625 16.25 -25.140625 C 15.050781 -25.203125 14.144531 -25.3125 13.53125 -25.46875 C 12.707031 -25.675781 12 -25.925781 11.40625 -26.21875 C 10.769531 -26.519531 10.09375 -26.921875 9.375 -27.421875 C 9.070312 -27.640625 8.613281 -28.054688 8 -28.671875 C 7.332031 -29.410156 6.890625 -29.972656 6.671875 -30.359375 C 5.515625 -32.191406 4.9375 -34.164062 4.9375 -36.28125 L 4.9375 -36.40625 C 4.9375 -38.757812 5.6875 -40.972656 7.1875 -43.046875 C 7.46875 -43.410156 7.863281 -43.847656 8.375 -44.359375 C 9.132812 -45.078125 9.773438 -45.578125 10.296875 -45.859375 C 12.109375 -46.941406 14.023438 -47.484375 16.046875 -47.484375 L 16.140625 -47.484375 C 18.609375 -47.484375 20.875 -46.703125 22.9375 -45.140625 C 23.207031 -44.960938 23.613281 -44.601562 24.15625 -44.0625 C 24.675781 -43.488281 25.113281 -42.941406 25.46875 -42.421875 C 25.8125 -41.859375 26.070312 -41.390625 26.25 -41.015625 C 26.394531 -40.648438 26.492188 -40.390625 26.546875 -40.234375 C 26.492188 -40.210938 26.382812 -40.179688 26.21875 -40.140625 C 25.925781 -40.898438 25.539062 -41.640625 25.0625 -42.359375 C 24.78125 -42.796875 24.347656 -43.316406 23.765625 -43.921875 C 23.003906 -44.660156 22.382812 -45.164062 21.90625 -45.4375 C 20.09375 -46.5625 18.148438 -47.125 16.078125 -47.125 C 14.078125 -47.125 12.179688 -46.582031 10.390625 -45.5 C 8.347656 -44.1875 6.878906 -42.398438 5.984375 -40.140625 C 5.523438 -38.890625 5.296875 -37.625 5.296875 -36.34375 C 5.296875 -34.007812 6.015625 -31.851562 7.453125 -29.875 C 8.128906 -28.976562 8.890625 -28.226562 9.734375 -27.625 C 10.453125 -27.09375 11.160156 -26.6875 11.859375 -26.40625 C 12.472656 -26.144531 13.082031 -25.953125 13.6875 -25.828125 C 14.5625 -25.628906 15.296875 -25.53125 15.890625 -25.53125 C 16.847656 -25.457031 17.46875 -25.390625 17.75 -25.328125 C 17.894531 -25.328125 18.425781 -25.1875 19.34375 -24.90625 C 21.832031 -23.96875 23.753906 -22.378906 25.109375 -20.140625 C 26.128906 -18.390625 26.640625 -16.523438 26.640625 -14.546875 L 28.265625 -14.546875 C 28.265625 -17.097656 27.523438 -19.484375 26.046875 -21.703125 C 25.785156 -22.117188 25.347656 -22.648438 24.734375 -23.296875 C 24.085938 -23.953125 23.578125 -24.398438 23.203125 -24.640625 C 21.679688 -25.773438 20.046875 -26.53125 18.296875 -26.90625 C 17.796875 -27.007812 17.113281 -27.09375 16.25 -27.15625 C 15.894531 -27.15625 15.328125 -27.203125 14.546875 -27.296875 C 13.867188 -27.441406 13.3125 -27.59375 12.875 -27.75 C 10.78125 -28.570312 9.179688 -29.957031 8.078125 -31.90625 C 7.304688 -33.289062 6.921875 -34.769531 6.921875 -36.34375 C 6.921875 -38.414062 7.585938 -40.300781 8.921875 -42 C 9.078125 -42.238281 9.40625 -42.597656 9.90625 -43.078125 L 10.453125 -43.5625 C 12.160156 -44.851562 14.046875 -45.5 16.109375 -45.5 C 17.960938 -45.5 19.6875 -44.960938 21.28125 -43.890625 C 21.5625 -43.722656 21.992188 -43.351562 22.578125 -42.78125 C 23.148438 -42.195312 23.566406 -41.695312 23.828125 -41.28125 C 24.191406 -40.664062 24.472656 -40.097656 24.671875 -39.578125 C 24.472656 -39.492188 24.363281 -39.453125 24.34375 -39.453125 L 24.3125 -39.453125 C 23.488281 -41.609375 22.019531 -43.21875 19.90625 -44.28125 C 18.664062 -44.851562 17.4375 -45.140625 16.21875 -45.140625 L 15.984375 -45.140625 C 14.347656 -45.140625 12.769531 -44.648438 11.25 -43.671875 C 10.894531 -43.453125 10.445312 -43.082031 9.90625 -42.5625 C 9.3125 -41.945312 8.90625 -41.441406 8.6875 -41.046875 C 8.363281 -40.566406 8.070312 -39.976562 7.8125 -39.28125 C 7.457031 -38.28125 7.28125 -37.34375 7.28125 -36.46875 L 7.28125 -36.21875 C 7.28125 -34.644531 7.738281 -33.117188 8.65625 -31.640625 C 8.875 -31.285156 9.203125 -30.859375 9.640625 -30.359375 C 10.234375 -29.773438 10.632812 -29.414062 10.84375 -29.28125 C 11.28125 -28.957031 11.695312 -28.695312 12.09375 -28.5 C 12.488281 -28.300781 12.925781 -28.113281 13.40625 -27.9375 C 14.289062 -27.675781 15.0625 -27.546875 15.71875 -27.546875 C 16.738281 -27.484375 17.503906 -27.410156 18.015625 -27.328125 C 18.898438 -27.128906 19.648438 -26.921875 20.265625 -26.703125 C 23.460938 -25.441406 25.828125 -23.273438 27.359375 -20.203125 C 28.203125 -18.410156 28.625 -16.546875 28.625 -14.609375 L 28.625 -14.546875 L 30.265625 -14.546875 L 30.265625 -14.578125 C 30.265625 -17.671875 29.335938 -20.523438 27.484375 -23.140625 C 27.160156 -23.597656 26.679688 -24.15625 26.046875 -24.8125 C 25.390625 -25.457031 24.878906 -25.898438 24.515625 -26.140625 C 23.773438 -26.710938 23.144531 -27.128906 22.625 -27.390625 C 21.945312 -27.753906 21.117188 -28.113281 20.140625 -28.46875 C 19.585938 -28.664062 18.84375 -28.835938 17.90625 -28.984375 C 17.40625 -29.078125 16.46875 -29.164062 15.09375 -29.25 C 14.425781 -29.363281 13.9375 -29.484375 13.625 -29.609375 C 11.75 -30.347656 10.398438 -31.613281 9.578125 -33.40625 C 9.140625 -34.34375 8.921875 -35.320312 8.921875 -36.34375 C 8.921875 -37.78125 9.347656 -39.117188 10.203125 -40.359375 C 10.367188 -40.671875 10.703125 -41.078125 11.203125 -41.578125 C 11.953125 -42.234375 12.71875 -42.710938 13.5 -43.015625 C 14.34375 -43.335938 15.160156 -43.5 15.953125 -43.5 L 16.046875 -43.5 C 16.066406 -43.5 16.078125 -43.5 16.078125 -43.5 L 16.28125 -43.5 C 17.519531 -43.5 18.757812 -43.109375 20 -42.328125 C 20.351562 -42.128906 20.769531 -41.789062 21.25 -41.3125 C 21.289062 -41.269531 21.410156 -41.148438 21.609375 -40.953125 C 21.929688 -40.515625 22.179688 -40.132812 22.359375 -39.8125 C 22.554688 -39.476562 22.695312 -39.171875 22.78125 -38.890625 C 22.582031 -38.828125 22.472656 -38.796875 22.453125 -38.796875 C 21.753906 -40.535156 20.535156 -41.800781 18.796875 -42.59375 C 17.921875 -42.957031 17.023438 -43.140625 16.109375 -43.140625 L 16.078125 -43.140625 C 14.242188 -43.140625 12.632812 -42.453125 11.25 -41.078125 C 10.9375 -40.753906 10.679688 -40.460938 10.484375 -40.203125 C 9.679688 -38.984375 9.28125 -37.707031 9.28125 -36.375 L 9.28125 -36.28125 C 9.28125 -34.625 9.878906 -33.117188 11.078125 -31.765625 C 11.554688 -31.265625 11.882812 -30.972656 12.0625 -30.890625 C 12.34375 -30.671875 12.660156 -30.460938 13.015625 -30.265625 C 13.335938 -30.085938 13.78125 -29.925781 14.34375 -29.78125 C 14.675781 -29.644531 15.375 -29.554688 16.4375 -29.515625 C 16.894531 -29.492188 17.625 -29.394531 18.625 -29.21875 C 19.582031 -29.019531 20.421875 -28.78125 21.140625 -28.5 C 24.066406 -27.300781 26.398438 -25.414062 28.140625 -22.84375 C 29.796875 -20.320312 30.625 -17.5 30.625 -14.375 C 30.625 -12.769531 30.316406 -11.082031 29.703125 -9.3125 C 29.398438 -8.550781 29.066406 -7.832031 28.703125 -7.15625 C 28.347656 -6.519531 27.890625 -5.859375 27.328125 -5.171875 C 26.609375 -4.273438 25.8125 -3.476562 24.9375 -2.78125 C 24.039062 -2.101562 23.289062 -1.625 22.6875 -1.34375 C 20.476562 -0.164062 18.132812 0.421875 15.65625 0.421875 C 12.539062 0.421875 9.65625 -0.492188 7 -2.328125 C 6.539062 -2.648438 5.992188 -3.09375 5.359375 -3.65625 C 4.617188 -4.414062 4.140625 -4.953125 3.921875 -5.265625 C 3.460938 -5.828125 3.0625 -6.40625 2.71875 -7 C 2.28125 -7.757812 1.921875 -8.519531 1.640625 -9.28125 C 1.660156 -9.300781 3.640625 -10.050781 7.578125 -11.53125 C 7.835938 -10.863281 8.164062 -10.242188 8.5625 -9.671875 C 8.757812 -9.347656 9.054688 -8.976562 9.453125 -8.5625 C 9.972656 -8.0625 10.382812 -7.703125 10.6875 -7.484375 C 12.238281 -6.441406 13.875 -5.921875 15.59375 -5.921875 L 15.71875 -5.921875 C 17.59375 -5.921875 19.347656 -6.53125 20.984375 -7.75 C 21.222656 -7.914062 21.59375 -8.273438 22.09375 -8.828125 C 22.550781 -9.347656 22.890625 -9.796875 23.109375 -10.171875 C 23.890625 -11.515625 24.28125 -12.992188 24.28125 -14.609375 C 24.28125 -16.523438 23.660156 -18.300781 22.421875 -19.9375 C 22.179688 -20.195312 21.910156 -20.476562 21.609375 -20.78125 C 21.609375 -20.78125 21.519531 -20.859375 21.34375 -21.015625 C 20.582031 -21.671875 19.894531 -22.117188 19.28125 -22.359375 C 18.9375 -22.554688 18.488281 -22.726562 17.9375 -22.875 C 17.550781 -22.988281 17.0625 -23.078125 16.46875 -23.140625 C 15.269531 -23.203125 14.421875 -23.28125 13.921875 -23.375 C 13.046875 -23.519531 12.316406 -23.703125 11.734375 -23.921875 C 10.773438 -24.273438 9.925781 -24.679688 9.1875 -25.140625 C 6.957031 -26.523438 5.28125 -28.421875 4.15625 -30.828125 C 3.34375 -32.609375 2.9375 -34.367188 2.9375 -36.109375 L 2.9375 -36.546875 C 2.9375 -38.390625 3.382812 -40.25 4.28125 -42.125 C 4.601562 -42.800781 5.039062 -43.507812 5.59375 -44.25 C 5.875 -44.644531 6.316406 -45.148438 6.921875 -45.765625 C 7.640625 -46.410156 8.21875 -46.875 8.65625 -47.15625 C 9.289062 -47.59375 9.925781 -47.96875 10.5625 -48.28125 C 12.34375 -49.082031 14.128906 -49.484375 15.921875 -49.484375 Z M 15.921875 -49.484375 "/></g></g></g><g fill="#800000" fill-opacity="1"><g transform="translate(35.509163, 56.161547)"><g><path d="M 16.609375 -29.90625 L 17.09375 -29.90625 C 19.75 -29.90625 22.34375 -29.144531 24.875 -27.625 C 25.53125 -27.25 26.347656 -26.625 27.328125 -25.75 C 28.285156 -24.769531 28.9375 -24 29.28125 -23.4375 C 31.132812 -20.78125 32.0625 -17.878906 32.0625 -14.734375 C 32.0625 -11.617188 31.15625 -8.734375 29.34375 -6.078125 C 29.019531 -5.597656 28.488281 -4.957031 27.75 -4.15625 C 26.832031 -3.238281 26.023438 -2.5625 25.328125 -2.125 C 22.710938 -0.40625 19.878906 0.453125 16.828125 0.453125 C 13.171875 0.453125 9.859375 -0.773438 6.890625 -3.234375 C 5.890625 -4.191406 5.289062 -4.8125 5.09375 -5.09375 C 4.632812 -5.6875 4.222656 -6.273438 3.859375 -6.859375 C 2.398438 -9.347656 1.671875 -11.972656 1.671875 -14.734375 C 1.671875 -18.179688 2.78125 -21.34375 5 -24.21875 C 5.875 -25.238281 6.691406 -26.054688 7.453125 -26.671875 C 8.492188 -27.429688 9.382812 -27.988281 10.125 -28.34375 C 12.289062 -29.382812 14.453125 -29.90625 16.609375 -29.90625 Z M 8.109375 -14.703125 C 8.109375 -12.421875 8.957031 -10.375 10.65625 -8.5625 C 11.394531 -7.863281 12.070312 -7.363281 12.6875 -7.0625 C 14.03125 -6.34375 15.378906 -5.984375 16.734375 -5.984375 L 17 -5.984375 C 18.757812 -5.984375 20.4375 -6.550781 22.03125 -7.6875 C 22.8125 -8.269531 23.472656 -8.941406 24.015625 -9.703125 C 25.066406 -11.253906 25.59375 -12.929688 25.59375 -14.734375 C 25.59375 -17.023438 24.765625 -19.066406 23.109375 -20.859375 C 22.210938 -21.703125 21.375 -22.300781 20.59375 -22.65625 C 19.375 -23.195312 18.195312 -23.46875 17.0625 -23.46875 L 16.640625 -23.46875 C 14.910156 -23.46875 13.242188 -22.890625 11.640625 -21.734375 C 10.898438 -21.171875 10.253906 -20.519531 9.703125 -19.78125 C 8.640625 -18.207031 8.109375 -16.515625 8.109375 -14.703125 Z M 2.09375 -15.71875 C 2.070312 -15.5 2.0625 -15.207031 2.0625 -14.84375 L 2.0625 -14.640625 C 2.0625 -11.328125 3.140625 -8.265625 5.296875 -5.453125 C 6.253906 -4.347656 7.0625 -3.566406 7.71875 -3.109375 C 10.476562 -0.972656 13.523438 0.09375 16.859375 0.09375 C 19.847656 0.09375 22.648438 -0.773438 25.265625 -2.515625 C 25.878906 -2.929688 26.554688 -3.5 27.296875 -4.21875 C 27.960938 -4.914062 28.492188 -5.535156 28.890625 -6.078125 C 29.503906 -6.953125 29.960938 -7.738281 30.265625 -8.4375 C 31.203125 -10.457031 31.671875 -12.492188 31.671875 -14.546875 L 31.671875 -14.90625 C 31.671875 -15.269531 31.660156 -15.539062 31.640625 -15.71875 L 30 -15.71875 C 30.019531 -15.394531 30.03125 -15.066406 30.03125 -14.734375 C 30.03125 -11.421875 28.878906 -8.457031 26.578125 -5.84375 C 25.703125 -4.957031 25.113281 -4.425781 24.8125 -4.25 C 22.414062 -2.457031 19.753906 -1.5625 16.828125 -1.5625 C 13.515625 -1.5625 10.550781 -2.71875 7.9375 -5.03125 C 7.070312 -5.90625 6.507812 -6.535156 6.25 -6.921875 C 5.675781 -7.710938 5.191406 -8.539062 4.796875 -9.40625 C 4.054688 -11.15625 3.6875 -12.859375 3.6875 -14.515625 L 3.6875 -14.9375 C 3.6875 -15.28125 3.695312 -15.539062 3.71875 -15.71875 Z M 4.078125 -15.71875 C 4.054688 -15.375 4.046875 -15.035156 4.046875 -14.703125 C 4.046875 -11.703125 5.050781 -8.96875 7.0625 -6.5 C 7.800781 -5.675781 8.421875 -5.078125 8.921875 -4.703125 C 11.335938 -2.847656 13.972656 -1.921875 16.828125 -1.921875 C 19.816406 -1.921875 22.539062 -2.90625 25 -4.875 C 25.914062 -5.675781 26.5625 -6.335938 26.9375 -6.859375 C 28.738281 -9.234375 29.640625 -11.828125 29.640625 -14.640625 L 29.640625 -14.8125 C 29.640625 -15.09375 29.628906 -15.394531 29.609375 -15.71875 L 27.9375 -15.71875 C 27.96875 -15.4375 27.984375 -15.164062 27.984375 -14.90625 L 27.984375 -14.546875 C 27.984375 -12.234375 27.226562 -10.039062 25.71875 -7.96875 C 25.4375 -7.5625 24.925781 -7.019531 24.1875 -6.34375 C 22.007812 -4.507812 19.554688 -3.59375 16.828125 -3.59375 C 14.015625 -3.59375 11.5 -4.582031 9.28125 -6.5625 C 8.519531 -7.3125 8 -7.925781 7.71875 -8.40625 C 6.382812 -10.363281 5.71875 -12.421875 5.71875 -14.578125 L 5.71875 -14.875 C 5.71875 -15.113281 5.726562 -15.394531 5.75 -15.71875 Z M 6.140625 -15.71875 C 6.097656 -15.4375 6.078125 -15.097656 6.078125 -14.703125 C 6.078125 -11.890625 7.101562 -9.394531 9.15625 -7.21875 C 9.9375 -6.457031 10.617188 -5.90625 11.203125 -5.5625 C 12.992188 -4.488281 14.816406 -3.953125 16.671875 -3.953125 L 17.0625 -3.953125 C 19.132812 -3.953125 21.148438 -4.617188 23.109375 -5.953125 C 23.453125 -6.191406 23.992188 -6.671875 24.734375 -7.390625 C 26.660156 -9.546875 27.625 -11.992188 27.625 -14.734375 L 27.625 -14.765625 C 27.625 -15.140625 27.609375 -15.457031 27.578125 -15.71875 L 25.921875 -15.71875 C 25.941406 -15.457031 25.953125 -15.175781 25.953125 -14.875 L 25.953125 -14.578125 C 25.953125 -12.441406 25.1875 -10.457031 23.65625 -8.625 C 22.914062 -7.882812 22.332031 -7.382812 21.90625 -7.125 C 20.3125 -6.125 18.617188 -5.625 16.828125 -5.625 C 14.429688 -5.625 12.296875 -6.503906 10.421875 -8.265625 C 8.640625 -10.140625 7.75 -12.253906 7.75 -14.609375 L 7.75 -14.84375 C 7.75 -15.125 7.769531 -15.414062 7.8125 -15.71875 Z M 6.140625 -15.71875 "/></g></g></g><g fill="#800000" fill-opacity="1"><g transform="translate(70.880318, 56.161547)"><g><path d="M 16.734375 -29.90625 L 16.9375 -29.90625 C 18.613281 -29.90625 20.269531 -29.613281 21.90625 -29.03125 C 21.90625 -28.59375 21.90625 -28.265625 21.90625 -28.046875 L 21.90625 -27.484375 C 21.90625 -27.097656 21.90625 -26.828125 21.90625 -26.671875 C 21.90625 -26.472656 21.90625 -26.203125 21.90625 -25.859375 L 21.90625 -25.265625 C 21.90625 -24.890625 21.90625 -24.617188 21.90625 -24.453125 C 21.90625 -24.253906 21.90625 -23.957031 21.90625 -23.5625 L 21.90625 -22.90625 C 21.90625 -22.6875 21.90625 -22.335938 21.90625 -21.859375 C 21.90625 -21.859375 21.90625 -21.847656 21.90625 -21.828125 C 20.332031 -22.921875 18.640625 -23.46875 16.828125 -23.46875 C 14.410156 -23.46875 12.296875 -22.5625 10.484375 -20.75 C 9.640625 -19.789062 9.039062 -18.863281 8.6875 -17.96875 C 8.28125 -16.863281 8.078125 -15.773438 8.078125 -14.703125 C 8.078125 -12.523438 8.847656 -10.546875 10.390625 -8.765625 C 11.242188 -7.929688 11.910156 -7.40625 12.390625 -7.1875 C 13.785156 -6.363281 15.253906 -5.953125 16.796875 -5.953125 C 18.410156 -5.953125 19.9375 -6.375 21.375 -7.21875 C 21.632812 -7.394531 21.8125 -7.515625 21.90625 -7.578125 L 21.90625 -7.125 C 20.351562 -6.101562 18.648438 -5.59375 16.796875 -5.59375 C 14.597656 -5.59375 12.601562 -6.34375 10.8125 -7.84375 C 10.144531 -8.457031 9.675781 -8.96875 9.40625 -9.375 C 8.28125 -11.007812 7.71875 -12.785156 7.71875 -14.703125 C 7.71875 -16.515625 8.21875 -18.207031 9.21875 -19.78125 L 7.328125 -19.78125 C 6.472656 -18.1875 6.046875 -16.492188 6.046875 -14.703125 C 6.046875 -12.003906 6.992188 -9.578125 8.890625 -7.421875 C 9.648438 -6.660156 10.21875 -6.160156 10.59375 -5.921875 C 12.507812 -4.585938 14.585938 -3.921875 16.828125 -3.921875 C 18.554688 -3.921875 20.25 -4.347656 21.90625 -5.203125 L 21.90625 -4.796875 C 20.351562 -3.972656 18.648438 -3.5625 16.796875 -3.5625 C 13.941406 -3.5625 11.382812 -4.585938 9.125 -6.640625 C 6.832031 -8.921875 5.6875 -11.617188 5.6875 -14.734375 C 5.6875 -16.460938 6.085938 -18.144531 6.890625 -19.78125 L 5.0625 -19.78125 C 4.363281 -18.125 4.015625 -16.429688 4.015625 -14.703125 C 4.015625 -11.703125 5.007812 -8.96875 7 -6.5 C 7.914062 -5.5 8.578125 -4.867188 8.984375 -4.609375 C 11.335938 -2.796875 13.960938 -1.890625 16.859375 -1.890625 C 18.566406 -1.890625 20.25 -2.238281 21.90625 -2.9375 L 21.90625 -2.546875 C 21.726562 -2.441406 21.269531 -2.28125 20.53125 -2.0625 C 19.3125 -1.707031 18.097656 -1.53125 16.890625 -1.53125 L 16.765625 -1.53125 C 13.910156 -1.53125 11.273438 -2.425781 8.859375 -4.21875 C 8.460938 -4.5 7.90625 -5 7.1875 -5.71875 C 6.269531 -6.789062 5.691406 -7.578125 5.453125 -8.078125 C 5.066406 -8.703125 4.742188 -9.363281 4.484375 -10.0625 C 3.929688 -11.59375 3.65625 -13.117188 3.65625 -14.640625 L 3.65625 -14.765625 C 3.65625 -16.453125 3.984375 -18.125 4.640625 -19.78125 L 2.875 -19.78125 C 2.289062 -18.125 2 -16.429688 2 -14.703125 C 2 -10.984375 3.296875 -7.640625 5.890625 -4.671875 C 6.890625 -3.671875 7.617188 -3.03125 8.078125 -2.75 C 10.734375 -0.832031 13.660156 0.125 16.859375 0.125 C 18.566406 0.125 20.25 -0.164062 21.90625 -0.75 L 21.90625 -0.390625 C 21.789062 -0.328125 21.351562 -0.1875 20.59375 0.03125 C 19.351562 0.332031 18.132812 0.484375 16.9375 0.484375 L 16.671875 0.484375 C 13.484375 0.484375 10.5 -0.515625 7.71875 -2.515625 C 7.28125 -2.816406 6.582031 -3.445312 5.625 -4.40625 C 4.6875 -5.5 4.066406 -6.351562 3.765625 -6.96875 C 2.347656 -9.363281 1.640625 -11.910156 1.640625 -14.609375 L 1.640625 -14.8125 C 1.640625 -17.613281 2.410156 -20.28125 3.953125 -22.8125 C 4.367188 -23.488281 5.046875 -24.335938 5.984375 -25.359375 C 7.066406 -26.410156 7.992188 -27.148438 8.765625 -27.578125 C 11.265625 -29.128906 13.921875 -29.90625 16.734375 -29.90625 Z M 16.734375 -29.90625 "/></g></g></g><g fill="#800000" fill-opacity="1"><g transform="translate(97.75389, 56.161547)"><g><path d="M 6.375 -49.1875 C 7.59375 -49.1875 8.550781 -48.617188 9.25 -47.484375 C 9.507812 -47.003906 9.640625 -46.472656 9.640625 -45.890625 L 9.640625 -45.859375 C 9.640625 -44.722656 9.109375 -43.796875 8.046875 -43.078125 C 7.492188 -42.796875 6.976562 -42.65625 6.5 -42.65625 L 6.28125 -42.65625 C 5.207031 -42.65625 4.300781 -43.164062 3.5625 -44.1875 C 3.257812 -44.726562 3.109375 -45.285156 3.109375 -45.859375 L 3.109375 -45.984375 C 3.109375 -47.054688 3.597656 -47.953125 4.578125 -48.671875 C 5.140625 -49.015625 5.738281 -49.1875 6.375 -49.1875 Z M 9.484375 -29.421875 L 9.484375 0 L 9.15625 0 L 9.15625 -19.609375 L 7.546875 -19.609375 L 7.546875 0 L 7.1875 0 L 7.1875 -19.609375 L 5.59375 -19.609375 L 5.59375 0 L 5.234375 0 L 5.234375 -19.609375 L 3.625 -19.609375 L 3.625 0 L 3.265625 0 L 3.265625 -29.421875 Z M 9.484375 -29.421875 "/></g></g></g><g fill="#800000" fill-opacity="1"><g transform="translate(112.273285, 56.161547)"><g><path d="M 16.640625 -29.421875 L 16.765625 -29.421875 C 19.835938 -29.421875 22.703125 -28.523438 25.359375 -26.734375 L 25.390625 -26.734375 L 25.390625 -29.421875 L 25.75 -29.421875 L 25.75 0 L 25.390625 0 L 25.390625 -2.6875 L 25.359375 -2.6875 C 22.722656 -0.894531 19.835938 0 16.703125 0 C 12.867188 0 9.457031 -1.285156 6.46875 -3.859375 C 5.570312 -4.734375 4.984375 -5.363281 4.703125 -5.75 C 2.628906 -8.457031 1.59375 -11.453125 1.59375 -14.734375 C 1.59375 -18.265625 2.816406 -21.457031 5.265625 -24.3125 C 6.066406 -25.1875 6.695312 -25.785156 7.15625 -26.109375 C 10.007812 -28.316406 13.171875 -29.421875 16.640625 -29.421875 Z M 27.75 -29.421875 L 27.75 0 L 27.390625 0 L 27.390625 -29.421875 Z M 29.78125 -29.421875 L 29.78125 0 L 29.421875 0 L 29.421875 -29.421875 Z M 31.765625 -29.421875 L 31.765625 0 L 31.40625 0 L 31.40625 -29.421875 Z M 8 -14.84375 L 8 -14.578125 C 8 -12.617188 8.707031 -10.8125 10.125 -9.15625 C 10.800781 -8.4375 11.296875 -8 11.609375 -7.84375 C 13.148438 -6.75 14.847656 -6.203125 16.703125 -6.203125 C 18.921875 -6.203125 20.90625 -6.988281 22.65625 -8.5625 C 24.476562 -10.300781 25.390625 -12.359375 25.390625 -14.734375 C 25.390625 -17.046875 24.488281 -19.085938 22.6875 -20.859375 L 22.125 -21.3125 C 20.488281 -22.570312 18.671875 -23.203125 16.671875 -23.203125 C 14.492188 -23.203125 12.519531 -22.441406 10.75 -20.921875 C 9.988281 -20.128906 9.488281 -19.53125 9.25 -19.125 C 8.414062 -17.726562 8 -16.300781 8 -14.84375 Z M 8 -14.84375 "/></g></g></g><g fill="#800000" fill-opacity="1"><g transform="translate(149.049808, 56.161547)"><g><path d="M 9.515625 -49.03125 L 9.515625 0 L 9.15625 0 L 9.15625 -39.21875 L 7.546875 -39.21875 L 7.546875 0 L 7.1875 0 L 7.1875 -39.21875 L 5.59375 -39.21875 L 5.59375 0 L 5.234375 0 L 5.234375 -39.21875 L 3.625 -39.21875 L 3.625 0 L 3.265625 0 L 3.265625 -49.03125 Z M 9.515625 -49.03125 "/></g></g></g></g></g></svg>